<svg width="81" height="31" viewBox="0 0 81 31" fill="none" xmlns="http://www.w3.org/2000/svg">
<path d="M0.268 0.839998H6.604C9.748 0.839998 11.968 1.56 13.264 3C14.584 4.44 15.244 6.684 15.244 9.732V20.46C15.244 23.676 14.596 26.076 13.3 27.66C12.028 29.22 9.904 30 6.928 30H0.268V0.839998ZM6.64 27.084C8.056 27.084 9.076 26.808 9.7 26.256C10.348 25.704 10.744 24.96 10.888 24.024C11.056 23.064 11.14 21.624 11.14 19.704V10.236C11.14 8.58 11.032 7.32 10.816 6.456C10.624 5.568 10.204 4.92 9.556 4.512C8.908 4.08 7.9 3.864 6.532 3.864H4.336V27.084H6.64ZM24.6884 30.288C23.0804 30.288 21.8324 29.988 20.9444 29.388C20.0564 28.764 19.4324 27.852 19.0724 26.652C18.7124 25.452 18.5324 23.892 18.5324 21.972V17.22C18.5324 14.34 18.9764 12.24 19.8644 10.92C20.7764 9.576 22.3844 8.904 24.6884 8.904C26.3684 8.904 27.6284 9.252 28.4684 9.948C29.3324 10.644 29.8964 11.628 30.1604 12.9C30.4484 14.148 30.5924 15.84 30.5924 17.976V19.668H22.3844V23.844C22.3844 25.116 22.5644 26.04 22.9244 26.616C23.3084 27.168 23.9084 27.444 24.7244 27.444C25.5404 27.444 26.0924 27.168 26.3804 26.616C26.6684 26.04 26.8124 25.176 26.8124 24.024V22.764H30.5564V23.556C30.5564 25.74 30.0884 27.408 29.1524 28.56C28.2164 29.712 26.7284 30.288 24.6884 30.288ZM26.8124 17.58V15.708C26.8124 14.292 26.6684 13.284 26.3804 12.684C26.1164 12.06 25.5404 11.748 24.6524 11.748C24.0284 11.748 23.5484 11.892 23.2124 12.18C22.9004 12.468 22.6844 12.948 22.5644 13.62C22.4444 14.268 22.3844 15.216 22.3844 16.464V17.58H26.8124ZM41.5327 30.288C40.2847 30.288 39.1087 29.688 38.0047 28.488V30H34.1527V0.839998H38.0047V10.848C39.1327 9.552 40.4407 8.904 41.9287 8.904C43.8247 8.904 45.0847 9.72 45.7087 11.352C46.3567 12.96 46.6807 14.748 46.6807 16.716V21.756C46.6807 27.444 44.9647 30.288 41.5327 30.288ZM40.7407 27.264C41.6287 27.264 42.1927 26.82 42.4327 25.932C42.6967 25.02 42.8287 23.628 42.8287 21.756V16.716C42.8287 15.18 42.6847 14.004 42.3967 13.188C42.1087 12.348 41.5087 11.928 40.5967 11.928C39.7567 11.928 38.8927 12.276 38.0047 12.972V26.328C38.7967 26.952 39.7087 27.264 40.7407 27.264ZM50.4343 2.064H54.2863V6.096H50.4343V2.064ZM50.4343 9.192H54.2863V30H50.4343V9.192ZM63.9528 30.288C60.9528 30.288 59.4528 28.632 59.4528 25.32V11.748H57.2568V9.192H59.4528V3.108H63.3048V9.192H66.6528V11.748H63.3048V25.068C63.3048 25.908 63.4368 26.496 63.7008 26.832C63.9648 27.168 64.4688 27.336 65.2128 27.336C65.6928 27.336 66.1608 27.3 66.6168 27.228V30.072C65.6568 30.216 64.7688 30.288 63.9528 30.288ZM74.3071 30.288C72.6271 30.288 71.2591 29.76 70.2031 28.704C69.1711 27.648 68.5831 26.232 68.4391 24.456L71.6431 23.484C71.8351 24.828 72.1591 25.824 72.6151 26.472C73.0951 27.12 73.7671 27.444 74.6311 27.444C75.3031 27.444 75.8191 27.252 76.1791 26.868C76.5631 26.46 76.7551 25.92 76.7551 25.248C76.7551 24.648 76.6231 24.108 76.3591 23.628C76.0951 23.148 75.6631 22.656 75.0631 22.152L71.4991 19.092C70.6831 18.396 70.0471 17.664 69.5911 16.896C69.1591 16.104 68.9431 15.144 68.9431 14.016C68.9431 12.408 69.4231 11.16 70.3831 10.272C71.3431 9.36 72.6511 8.904 74.3071 8.904C75.8911 8.904 77.1271 9.42 78.0151 10.452C78.9271 11.46 79.4551 12.768 79.5991 14.376L77.0071 15.348C76.8391 14.172 76.5631 13.284 76.1791 12.684C75.7951 12.06 75.2191 11.748 74.4511 11.748C73.8271 11.748 73.3231 11.952 72.9391 12.36C72.5791 12.768 72.3991 13.272 72.3991 13.872C72.3991 14.64 72.7471 15.336 73.4431 15.96L77.1151 19.344C78.0511 20.208 78.7711 21.06 79.2751 21.9C79.8031 22.74 80.0671 23.76 80.0671 24.96C80.0671 26.688 79.5511 28.008 78.5191 28.92C77.4871 29.832 76.0831 30.288 74.3071 30.288Z" fill="white"/>
</svg>
